<?xml version='1.0' encoding='UTF-8'?>
<svg width="78mm" height="78mm" version="1.1" xmlns="http://www.w3.org/2000/svg"><rect fill="white" x="0" y="0" width="100%" height="100%" /><rect x="2mm" y="2mm" width="2mm" height="2mm" /><rect x="4mm" y="2mm" width="2mm" height="2mm" /><rect x="6mm" y="2mm" width="2mm" height="2mm" /><rect x="8mm" y="2mm" width="2mm" height="2mm" /><rect x="10mm" y="2mm" width="2mm" height="2mm" /><rect x="12mm" y="2mm" width="2mm" height="2mm" /><rect x="14mm" y="2mm" width="2mm" height="2mm" /><rect x="20mm" y="2mm" width="2mm" height="2mm" /><rect x="32mm" y="2mm" width="2mm" height="2mm" /><rect x="34mm" y="2mm" width="2mm" height="2mm" /><rect x="40mm" y="2mm" width="2mm" height="2mm" /><rect x="42mm" y="2mm" width="2mm" height="2mm" /><rect x="46mm" y="2mm" width="2mm" height="2mm" /><rect x="48mm" y="2mm" width="2mm" height="2mm" /><rect x="50mm" y="2mm" width="2mm" height="2mm" /><rect x="52mm" y="2mm" width="2mm" height="2mm" /><rect x="54mm" y="2mm" width="2mm" height="2mm" /><rect x="62mm" y="2mm" width="2mm" height="2mm" /><rect x="64mm" y="2mm" width="2mm" height="2mm" /><rect x="66mm" y="2mm" width="2mm" height="2mm" /><rect x="68mm" y="2mm" width="2mm" height="2mm" /><rect x="70mm" y="2mm" width="2mm" height="2mm" /><rect x="72mm" y="2mm" width="2mm" height="2mm" /><rect x="74mm" y="2mm" width="2mm" height="2mm" /><rect x="2mm" y="4mm" width="2mm" height="2mm" /><rect x="14mm" y="4mm" width="2mm" height="2mm" /><rect x="18mm" y="4mm" width="2mm" height="2mm" /><rect x="20mm" y="4mm" width="2mm" height="2mm" /><rect x="24mm" y="4mm" width="2mm" height="2mm" /><rect x="26mm" y="4mm" width="2mm" height="2mm" /><rect x="42mm" y="4mm" width="2mm" height="2mm" /><rect x="44mm" y="4mm" width="2mm" height="2mm" /><rect x="46mm" y="4mm" width="2mm" height="2mm" /><rect x="50mm" y="4mm" width="2mm" height="2mm" /><rect x="56mm" y="4mm" width="2mm" height="2mm" /><rect x="62mm" y="4mm" width="2mm" height="2mm" /><rect x="74mm" y="4mm" width="2mm" height="2mm" /><rect x="2mm" y="6mm" width="2mm" height="2mm" /><rect x="6mm" y="6mm" width="2mm" height="2mm" /><rect x="8mm" y="6mm" width="2mm" height="2mm" /><rect x="10mm" y="6mm" width="2mm" height="2mm" /><rect x="14mm" y="6mm" width="2mm" height="2mm" /><rect x="20mm" y="6mm" width="2mm" height="2mm" /><rect x="22mm" y="6mm" width="2mm" height="2mm" /><rect x="24mm" y="6mm" width="2mm" height="2mm" /><rect x="30mm" y="6mm" width="2mm" height="2mm" /><rect x="34mm" y="6mm" width="2mm" height="2mm" /><rect x="38mm" y="6mm" width="2mm" height="2mm" /><rect x="40mm" y="6mm" width="2mm" height="2mm" /><rect x="44mm" y="6mm" width="2mm" height="2mm" /><rect x="46mm" y="6mm" width="2mm" height="2mm" /><rect x="54mm" y="6mm" width="2mm" height="2mm" /><rect x="56mm" y="6mm" width="2mm" height="2mm" /><rect x="62mm" y="6mm" width="2mm" height="2mm" /><rect x="66mm" y="6mm" width="2mm" height="2mm" /><rect x="68mm" y="6mm" width="2mm" height="2mm" /><rect x="70mm" y="6mm" width="2mm" height="2mm" /><rect x="74mm" y="6mm" width="2mm" height="2mm" /><rect x="2mm" y="8mm" width="2mm" height="2mm" /><rect x="6mm" y="8mm" width="2mm" height="2mm" /><rect x="8mm" y="8mm" width="2mm" height="2mm" /><rect x="10mm" y="8mm" width="2mm" height="2mm" /><rect x="14mm" y="8mm" width="2mm" height="2mm" /><rect x="18mm" y="8mm" width="2mm" height="2mm" /><rect x="20mm" y="8mm" width="2mm" height="2mm" /><rect x="24mm" y="8mm" width="2mm" height="2mm" /><rect x="34mm" y="8mm" width="2mm" height="2mm" /><rect x="50mm" y="8mm" width="2mm" height="2mm" /><rect x="52mm" y="8mm" width="2mm" height="2mm" /><rect x="58mm" y="8mm" width="2mm" height="2mm" /><rect x="62mm" y="8mm" width="2mm" height="2mm" /><rect x="66mm" y="8mm" width="2mm" height="2mm" /><rect x="68mm" y="8mm" width="2mm" height="2mm" /><rect x="70mm" y="8mm" width="2mm" height="2mm" /><rect x="74mm" y="8mm" width="2mm" height="2mm" /><rect x="2mm" y="10mm" width="2mm" height="2mm" /><rect x="6mm" y="10mm" width="2mm" height="2mm" /><rect x="8mm" y="10mm" width="2mm" height="2mm" /><rect x="10mm" y="10mm" width="2mm" height="2mm" /><rect x="14mm" y="10mm" width="2mm" height="2mm" /><rect x="22mm" y="10mm" width="2mm" height="2mm" /><rect x="26mm" y="10mm" width="2mm" height="2mm" /><rect x="28mm" y="10mm" width="2mm" height="2mm" /><rect x="30mm" y="10mm" width="2mm" height="2mm" /><rect x="32mm" y="10mm" width="2mm" height="2mm" /><rect x="36mm" y="10mm" width="2mm" height="2mm" /><rect x="40mm" y="10mm" width="2mm" height="2mm" /><rect x="42mm" y="10mm" width="2mm" height="2mm" /><rect x="44mm" y="10mm" width="2mm" height="2mm" /><rect x="46mm" y="10mm" width="2mm" height="2mm" /><rect x="48mm" y="10mm" width="2mm" height="2mm" /><rect x="54mm" y="10mm" width="2mm" height="2mm" /><rect x="62mm" y="10mm" width="2mm" height="2mm" /><rect x="66mm" y="10mm" width="2mm" height="2mm" /><rect x="68mm" y="10mm" width="2mm" height="2mm" /><rect x="70mm" y="10mm" width="2mm" height="2mm" /><rect x="74mm" y="10mm" width="2mm" height="2mm" /><rect x="2mm" y="12mm" width="2mm" height="2mm" /><rect x="14mm" y="12mm" width="2mm" height="2mm" /><rect x="18mm" y="12mm" width="2mm" height="2mm" /><rect x="22mm" y="12mm" width="2mm" height="2mm" /><rect x="28mm" y="12mm" width="2mm" height="2mm" /><rect x="30mm" y="12mm" width="2mm" height="2mm" /><rect x="32mm" y="12mm" width="2mm" height="2mm" /><rect x="34mm" y="12mm" width="2mm" height="2mm" /><rect x="36mm" y="12mm" width="2mm" height="2mm" /><rect x="42mm" y="12mm" width="2mm" height="2mm" /><rect x="52mm" y="12mm" width="2mm" height="2mm" /><rect x="56mm" y="12mm" width="2mm" height="2mm" /><rect x="62mm" y="12mm" width="2mm" height="2mm" /><rect x="74mm" y="12mm" width="2mm" height="2mm" /><rect x="2mm" y="14mm" width="2mm" height="2mm" /><rect x="4mm" y="14mm" width="2mm" height="2mm" /><rect x="6mm" y="14mm" width="2mm" height="2mm" /><rect x="8mm" y="14mm" width="2mm" height="2mm" /><rect x="10mm" y="14mm" width="2mm" height="2mm" /><rect x="12mm" y="14mm" width="2mm" height="2mm" /><rect x="14mm" y="14mm" width="2mm" height="2mm" /><rect x="18mm" y="14mm" width="2mm" height="2mm" /><rect x="22mm" y="14mm" width="2mm" height="2mm" /><rect x="26mm" y="14mm" width="2mm" height="2mm" /><rect x="30mm" y="14mm" width="2mm" height="2mm" /><rect x="34mm" y="14mm" width="2mm" height="2mm" /><rect x="38mm" y="14mm" width="2mm" height="2mm" /><rect x="42mm" y="14mm" width="2mm" height="2mm" /><rect x="46mm" y="14mm" width="2mm" height="2mm" /><rect x="50mm" y="14mm" width="2mm" height="2mm" /><rect x="54mm" y="14mm" width="2mm" height="2mm" /><rect x="58mm" y="14mm" width="2mm" height="2mm" /><rect x="62mm" y="14mm" width="2mm" height="2mm" /><rect x="64mm" y="14mm" width="2mm" height="2mm" /><rect x="66mm" y="14mm" width="2mm" height="2mm" /><rect x="68mm" y="14mm" width="2mm" height="2mm" /><rect x="70mm" y="14mm" width="2mm" height="2mm" /><rect x="72mm" y="14mm" width="2mm" height="2mm" /><rect x="74mm" y="14mm" width="2mm" height="2mm" /><rect x="26mm" y="16mm" width="2mm" height="2mm" /><rect x="28mm" y="16mm" width="2mm" height="2mm" /><rect x="32mm" y="16mm" width="2mm" height="2mm" /><rect x="42mm" y="16mm" width="2mm" height="2mm" /><rect x="44mm" y="16mm" width="2mm" height="2mm" /><rect x="50mm" y="16mm" width="2mm" height="2mm" /><rect x="54mm" y="16mm" width="2mm" height="2mm" /><rect x="2mm" y="18mm" width="2mm" height="2mm" /><rect x="4mm" y="18mm" width="2mm" height="2mm" /><rect x="6mm" y="18mm" width="2mm" height="2mm" /><rect x="8mm" y="18mm" width="2mm" height="2mm" /><rect x="10mm" y="18mm" width="2mm" height="2mm" /><rect x="14mm" y="18mm" width="2mm" height="2mm" /><rect x="16mm" y="18mm" width="2mm" height="2mm" /><rect x="18mm" y="18mm" width="2mm" height="2mm" /><rect x="20mm" y="18mm" width="2mm" height="2mm" /><rect x="22mm" y="18mm" width="2mm" height="2mm" /><rect x="26mm" y="18mm" width="2mm" height="2mm" /><rect x="30mm" y="18mm" width="2mm" height="2mm" /><rect x="32mm" y="18mm" width="2mm" height="2mm" /><rect x="36mm" y="18mm" width="2mm" height="2mm" /><rect x="48mm" y="18mm" width="2mm" height="2mm" /><rect x="50mm" y="18mm" width="2mm" height="2mm" /><rect x="52mm" y="18mm" width="2mm" height="2mm" /><rect x="56mm" y="18mm" width="2mm" height="2mm" /><rect x="58mm" y="18mm" width="2mm" height="2mm" /><rect x="60mm" y="18mm" width="2mm" height="2mm" /><rect x="64mm" y="18mm" width="2mm" height="2mm" /><rect x="68mm" y="18mm" width="2mm" height="2mm" /><rect x="72mm" y="18mm" width="2mm" height="2mm" /><rect x="2mm" y="20mm" width="2mm" height="2mm" /><rect x="4mm" y="20mm" width="2mm" height="2mm" /><rect x="6mm" y="20mm" width="2mm" height="2mm" /><rect x="12mm" y="20mm" width="2mm" height="2mm" /><rect x="16mm" y="20mm" width="2mm" height="2mm" /><rect x="20mm" y="20mm" width="2mm" height="2mm" /><rect x="32mm" y="20mm" width="2mm" height="2mm" /><rect x="34mm" y="20mm" width="2mm" height="2mm" /><rect x="36mm" y="20mm" width="2mm" height="2mm" /><rect x="38mm" y="20mm" width="2mm" height="2mm" /><rect x="40mm" y="20mm" width="2mm" height="2mm" /><rect x="42mm" y="20mm" width="2mm" height="2mm" /><rect x="44mm" y="20mm" width="2mm" height="2mm" /><rect x="46mm" y="20mm" width="2mm" height="2mm" /><rect x="48mm" y="20mm" width="2mm" height="2mm" /><rect x="54mm" y="20mm" width="2mm" height="2mm" /><rect x="68mm" y="20mm" width="2mm" height="2mm" /><rect x="70mm" y="20mm" width="2mm" height="2mm" /><rect x="72mm" y="20mm" width="2mm" height="2mm" /><rect x="6mm" y="22mm" width="2mm" height="2mm" /><rect x="8mm" y="22mm" width="2mm" height="2mm" /><rect x="12mm" y="22mm" width="2mm" height="2mm" /><rect x="14mm" y="22mm" width="2mm" height="2mm" /><rect x="20mm" y="22mm" width="2mm" height="2mm" /><rect x="22mm" y="22mm" width="2mm" height="2mm" /><rect x="24mm" y="22mm" width="2mm" height="2mm" /><rect x="26mm" y="22mm" width="2mm" height="2mm" /><rect x="38mm" y="22mm" width="2mm" height="2mm" /><rect x="44mm" y="22mm" width="2mm" height="2mm" /><rect x="46mm" y="22mm" width="2mm" height="2mm" /><rect x="56mm" y="22mm" width="2mm" height="2mm" /><rect x="58mm" y="22mm" width="2mm" height="2mm" /><rect x="60mm" y="22mm" width="2mm" height="2mm" /><rect x="66mm" y="22mm" width="2mm" height="2mm" /><rect x="68mm" y="22mm" width="2mm" height="2mm" /><rect x="70mm" y="22mm" width="2mm" height="2mm" /><rect x="74mm" y="22mm" width="2mm" height="2mm" /><rect x="2mm" y="24mm" width="2mm" height="2mm" /><rect x="4mm" y="24mm" width="2mm" height="2mm" /><rect x="6mm" y="24mm" width="2mm" height="2mm" /><rect x="8mm" y="24mm" width="2mm" height="2mm" /><rect x="18mm" y="24mm" width="2mm" height="2mm" /><rect x="24mm" y="24mm" width="2mm" height="2mm" /><rect x="30mm" y="24mm" width="2mm" height="2mm" /><rect x="34mm" y="24mm" width="2mm" height="2mm" /><rect x="40mm" y="24mm" width="2mm" height="2mm" /><rect x="44mm" y="24mm" width="2mm" height="2mm" /><rect x="48mm" y="24mm" width="2mm" height="2mm" /><rect x="54mm" y="24mm" width="2mm" height="2mm" /><rect x="58mm" y="24mm" width="2mm" height="2mm" /><rect x="60mm" y="24mm" width="2mm" height="2mm" /><rect x="62mm" y="24mm" width="2mm" height="2mm" /><rect x="68mm" y="24mm" width="2mm" height="2mm" /><rect x="72mm" y="24mm" width="2mm" height="2mm" /><rect x="2mm" y="26mm" width="2mm" height="2mm" /><rect x="4mm" y="26mm" width="2mm" height="2mm" /><rect x="8mm" y="26mm" width="2mm" height="2mm" /><rect x="12mm" y="26mm" width="2mm" height="2mm" /><rect x="14mm" y="26mm" width="2mm" height="2mm" /><rect x="18mm" y="26mm" width="2mm" height="2mm" /><rect x="20mm" y="26mm" width="2mm" height="2mm" /><rect x="24mm" y="26mm" width="2mm" height="2mm" /><rect x="34mm" y="26mm" width="2mm" height="2mm" /><rect x="36mm" y="26mm" width="2mm" height="2mm" /><rect x="40mm" y="26mm" width="2mm" height="2mm" /><rect x="48mm" y="26mm" width="2mm" height="2mm" /><rect x="52mm" y="26mm" width="2mm" height="2mm" /><rect x="60mm" y="26mm" width="2mm" height="2mm" /><rect x="62mm" y="26mm" width="2mm" height="2mm" /><rect x="64mm" y="26mm" width="2mm" height="2mm" /><rect x="66mm" y="26mm" width="2mm" height="2mm" /><rect x="68mm" y="26mm" width="2mm" height="2mm" /><rect x="70mm" y="26mm" width="2mm" height="2mm" /><rect x="74mm" y="26mm" width="2mm" height="2mm" /><rect x="8mm" y="28mm" width="2mm" height="2mm" /><rect x="18mm" y="28mm" width="2mm" height="2mm" /><rect x="22mm" y="28mm" width="2mm" height="2mm" /><rect x="26mm" y="28mm" width="2mm" height="2mm" /><rect x="28mm" y="28mm" width="2mm" height="2mm" /><rect x="30mm" y="28mm" width="2mm" height="2mm" /><rect x="32mm" y="28mm" width="2mm" height="2mm" /><rect x="38mm" y="28mm" width="2mm" height="2mm" /><rect x="40mm" y="28mm" width="2mm" height="2mm" /><rect x="42mm" y="28mm" width="2mm" height="2mm" /><rect x="44mm" y="28mm" width="2mm" height="2mm" /><rect x="46mm" y="28mm" width="2mm" height="2mm" /><rect x="54mm" y="28mm" width="2mm" height="2mm" /><rect x="60mm" y="28mm" width="2mm" height="2mm" /><rect x="64mm" y="28mm" width="2mm" height="2mm" /><rect x="70mm" y="28mm" width="2mm" height="2mm" /><rect x="72mm" y="28mm" width="2mm" height="2mm" /><rect x="2mm" y="30mm" width="2mm" height="2mm" /><rect x="6mm" y="30mm" width="2mm" height="2mm" /><rect x="10mm" y="30mm" width="2mm" height="2mm" /><rect x="14mm" y="30mm" width="2mm" height="2mm" /><rect x="20mm" y="30mm" width="2mm" height="2mm" /><rect x="22mm" y="30mm" width="2mm" height="2mm" /><rect x="28mm" y="30mm" width="2mm" height="2mm" /><rect x="30mm" y="30mm" width="2mm" height="2mm" /><rect x="32mm" y="30mm" width="2mm" height="2mm" /><rect x="34mm" y="30mm" width="2mm" height="2mm" /><rect x="42mm" y="30mm" width="2mm" height="2mm" /><rect x="46mm" y="30mm" width="2mm" height="2mm" /><rect x="50mm" y="30mm" width="2mm" height="2mm" /><rect x="52mm" y="30mm" width="2mm" height="2mm" /><rect x="56mm" y="30mm" width="2mm" height="2mm" /><rect x="58mm" y="30mm" width="2mm" height="2mm" /><rect x="62mm" y="30mm" width="2mm" height="2mm" /><rect x="64mm" y="30mm" width="2mm" height="2mm" /><rect x="70mm" y="30mm" width="2mm" height="2mm" /><rect x="72mm" y="30mm" width="2mm" height="2mm" /><rect x="74mm" y="30mm" width="2mm" height="2mm" /><rect x="2mm" y="32mm" width="2mm" height="2mm" /><rect x="8mm" y="32mm" width="2mm" height="2mm" /><rect x="10mm" y="32mm" width="2mm" height="2mm" /><rect x="12mm" y="32mm" width="2mm" height="2mm" /><rect x="18mm" y="32mm" width="2mm" height="2mm" /><rect x="20mm" y="32mm" width="2mm" height="2mm" /><rect x="26mm" y="32mm" width="2mm" height="2mm" /><rect x="28mm" y="32mm" width="2mm" height="2mm" /><rect x="32mm" y="32mm" width="2mm" height="2mm" /><rect x="38mm" y="32mm" width="2mm" height="2mm" /><rect x="40mm" y="32mm" width="2mm" height="2mm" /><rect x="42mm" y="32mm" width="2mm" height="2mm" /><rect x="44mm" y="32mm" width="2mm" height="2mm" /><rect x="46mm" y="32mm" width="2mm" height="2mm" /><rect x="48mm" y="32mm" width="2mm" height="2mm" /><rect x="50mm" y="32mm" width="2mm" height="2mm" /><rect x="54mm" y="32mm" width="2mm" height="2mm" /><rect x="56mm" y="32mm" width="2mm" height="2mm" /><rect x="58mm" y="32mm" width="2mm" height="2mm" /><rect x="60mm" y="32mm" width="2mm" height="2mm" /><rect x="68mm" y="32mm" width="2mm" height="2mm" /><rect x="74mm" y="32mm" width="2mm" height="2mm" /><rect x="8mm" y="34mm" width="2mm" height="2mm" /><rect x="12mm" y="34mm" width="2mm" height="2mm" /><rect x="14mm" y="34mm" width="2mm" height="2mm" /><rect x="16mm" y="34mm" width="2mm" height="2mm" /><rect x="18mm" y="34mm" width="2mm" height="2mm" /><rect x="26mm" y="34mm" width="2mm" height="2mm" /><rect x="30mm" y="34mm" width="2mm" height="2mm" /><rect x="32mm" y="34mm" width="2mm" height="2mm" /><rect x="36mm" y="34mm" width="2mm" height="2mm" /><rect x="38mm" y="34mm" width="2mm" height="2mm" /><rect x="40mm" y="34mm" width="2mm" height="2mm" /><rect x="52mm" y="34mm" width="2mm" height="2mm" /><rect x="60mm" y="34mm" width="2mm" height="2mm" /><rect x="62mm" y="34mm" width="2mm" height="2mm" /><rect x="66mm" y="34mm" width="2mm" height="2mm" /><rect x="68mm" y="34mm" width="2mm" height="2mm" /><rect x="70mm" y="34mm" width="2mm" height="2mm" /><rect x="74mm" y="34mm" width="2mm" height="2mm" /><rect x="2mm" y="36mm" width="2mm" height="2mm" /><rect x="6mm" y="36mm" width="2mm" height="2mm" /><rect x="10mm" y="36mm" width="2mm" height="2mm" /><rect x="16mm" y="36mm" width="2mm" height="2mm" /><rect x="18mm" y="36mm" width="2mm" height="2mm" /><rect x="20mm" y="36mm" width="2mm" height="2mm" /><rect x="32mm" y="36mm" width="2mm" height="2mm" /><rect x="34mm" y="36mm" width="2mm" height="2mm" /><rect x="36mm" y="36mm" width="2mm" height="2mm" /><rect x="40mm" y="36mm" width="2mm" height="2mm" /><rect x="42mm" y="36mm" width="2mm" height="2mm" /><rect x="44mm" y="36mm" width="2mm" height="2mm" /><rect x="46mm" y="36mm" width="2mm" height="2mm" /><rect x="48mm" y="36mm" width="2mm" height="2mm" /><rect x="54mm" y="36mm" width="2mm" height="2mm" /><rect x="58mm" y="36mm" width="2mm" height="2mm" /><rect x="60mm" y="36mm" width="2mm" height="2mm" /><rect x="64mm" y="36mm" width="2mm" height="2mm" /><rect x="70mm" y="36mm" width="2mm" height="2mm" /><rect x="72mm" y="36mm" width="2mm" height="2mm" /><rect x="2mm" y="38mm" width="2mm" height="2mm" /><rect x="4mm" y="38mm" width="2mm" height="2mm" /><rect x="6mm" y="38mm" width="2mm" height="2mm" /><rect x="14mm" y="38mm" width="2mm" height="2mm" /><rect x="16mm" y="38mm" width="2mm" height="2mm" /><rect x="18mm" y="38mm" width="2mm" height="2mm" /><rect x="20mm" y="38mm" width="2mm" height="2mm" /><rect x="24mm" y="38mm" width="2mm" height="2mm" /><rect x="26mm" y="38mm" width="2mm" height="2mm" /><rect x="46mm" y="38mm" width="2mm" height="2mm" /><rect x="56mm" y="38mm" width="2mm" height="2mm" /><rect x="58mm" y="38mm" width="2mm" height="2mm" /><rect x="60mm" y="38mm" width="2mm" height="2mm" /><rect x="62mm" y="38mm" width="2mm" height="2mm" /><rect x="66mm" y="38mm" width="2mm" height="2mm" /><rect x="70mm" y="38mm" width="2mm" height="2mm" /><rect x="72mm" y="38mm" width="2mm" height="2mm" /><rect x="74mm" y="38mm" width="2mm" height="2mm" /><rect x="6mm" y="40mm" width="2mm" height="2mm" /><rect x="10mm" y="40mm" width="2mm" height="2mm" /><rect x="12mm" y="40mm" width="2mm" height="2mm" /><rect x="18mm" y="40mm" width="2mm" height="2mm" /><rect x="20mm" y="40mm" width="2mm" height="2mm" /><rect x="24mm" y="40mm" width="2mm" height="2mm" /><rect x="30mm" y="40mm" width="2mm" height="2mm" /><rect x="34mm" y="40mm" width="2mm" height="2mm" /><rect x="40mm" y="40mm" width="2mm" height="2mm" /><rect x="44mm" y="40mm" width="2mm" height="2mm" /><rect x="46mm" y="40mm" width="2mm" height="2mm" /><rect x="58mm" y="40mm" width="2mm" height="2mm" /><rect x="62mm" y="40mm" width="2mm" height="2mm" /><rect x="74mm" y="40mm" width="2mm" height="2mm" /><rect x="4mm" y="42mm" width="2mm" height="2mm" /><rect x="6mm" y="42mm" width="2mm" height="2mm" /><rect x="8mm" y="42mm" width="2mm" height="2mm" /><rect x="14mm" y="42mm" width="2mm" height="2mm" /><rect x="24mm" y="42mm" width="2mm" height="2mm" /><rect x="34mm" y="42mm" width="2mm" height="2mm" /><rect x="36mm" y="42mm" width="2mm" height="2mm" /><rect x="38mm" y="42mm" width="2mm" height="2mm" /><rect x="42mm" y="42mm" width="2mm" height="2mm" /><rect x="50mm" y="42mm" width="2mm" height="2mm" /><rect x="52mm" y="42mm" width="2mm" height="2mm" /><rect x="54mm" y="42mm" width="2mm" height="2mm" /><rect x="60mm" y="42mm" width="2mm" height="2mm" /><rect x="62mm" y="42mm" width="2mm" height="2mm" /><rect x="66mm" y="42mm" width="2mm" height="2mm" /><rect x="68mm" y="42mm" width="2mm" height="2mm" /><rect x="70mm" y="42mm" width="2mm" height="2mm" /><rect x="72mm" y="42mm" width="2mm" height="2mm" /><rect x="74mm" y="42mm" width="2mm" height="2mm" /><rect x="4mm" y="44mm" width="2mm" height="2mm" /><rect x="8mm" y="44mm" width="2mm" height="2mm" /><rect x="10mm" y="44mm" width="2mm" height="2mm" /><rect x="12mm" y="44mm" width="2mm" height="2mm" /><rect x="16mm" y="44mm" width="2mm" height="2mm" /><rect x="26mm" y="44mm" width="2mm" height="2mm" /><rect x="28mm" y="44mm" width="2mm" height="2mm" /><rect x="30mm" y="44mm" width="2mm" height="2mm" /><rect x="32mm" y="44mm" width="2mm" height="2mm" /><rect x="40mm" y="44mm" width="2mm" height="2mm" /><rect x="42mm" y="44mm" width="2mm" height="2mm" /><rect x="44mm" y="44mm" width="2mm" height="2mm" /><rect x="46mm" y="44mm" width="2mm" height="2mm" /><rect x="48mm" y="44mm" width="2mm" height="2mm" /><rect x="58mm" y="44mm" width="2mm" height="2mm" /><rect x="60mm" y="44mm" width="2mm" height="2mm" /><rect x="64mm" y="44mm" width="2mm" height="2mm" /><rect x="68mm" y="44mm" width="2mm" height="2mm" /><rect x="72mm" y="44mm" width="2mm" height="2mm" /><rect x="14mm" y="46mm" width="2mm" height="2mm" /><rect x="16mm" y="46mm" width="2mm" height="2mm" /><rect x="18mm" y="46mm" width="2mm" height="2mm" /><rect x="20mm" y="46mm" width="2mm" height="2mm" /><rect x="28mm" y="46mm" width="2mm" height="2mm" /><rect x="30mm" y="46mm" width="2mm" height="2mm" /><rect x="32mm" y="46mm" width="2mm" height="2mm" /><rect x="34mm" y="46mm" width="2mm" height="2mm" /><rect x="52mm" y="46mm" width="2mm" height="2mm" /><rect x="56mm" y="46mm" width="2mm" height="2mm" /><rect x="58mm" y="46mm" width="2mm" height="2mm" /><rect x="60mm" y="46mm" width="2mm" height="2mm" /><rect x="62mm" y="46mm" width="2mm" height="2mm" /><rect x="64mm" y="46mm" width="2mm" height="2mm" /><rect x="70mm" y="46mm" width="2mm" height="2mm" /><rect x="72mm" y="46mm" width="2mm" height="2mm" /><rect x="74mm" y="46mm" width="2mm" height="2mm" /><rect x="16mm" y="48mm" width="2mm" height="2mm" /><rect x="18mm" y="48mm" width="2mm" height="2mm" /><rect x="20mm" y="48mm" width="2mm" height="2mm" /><rect x="22mm" y="48mm" width="2mm" height="2mm" /><rect x="26mm" y="48mm" width="2mm" height="2mm" /><rect x="28mm" y="48mm" width="2mm" height="2mm" /><rect x="32mm" y="48mm" width="2mm" height="2mm" /><rect x="38mm" y="48mm" width="2mm" height="2mm" /><rect x="44mm" y="48mm" width="2mm" height="2mm" /><rect x="48mm" y="48mm" width="2mm" height="2mm" /><rect x="50mm" y="48mm" width="2mm" height="2mm" /><rect x="60mm" y="48mm" width="2mm" height="2mm" /><rect x="62mm" y="48mm" width="2mm" height="2mm" /><rect x="64mm" y="48mm" width="2mm" height="2mm" /><rect x="74mm" y="48mm" width="2mm" height="2mm" /><rect x="2mm" y="50mm" width="2mm" height="2mm" /><rect x="6mm" y="50mm" width="2mm" height="2mm" /><rect x="8mm" y="50mm" width="2mm" height="2mm" /><rect x="14mm" y="50mm" width="2mm" height="2mm" /><rect x="16mm" y="50mm" width="2mm" height="2mm" /><rect x="22mm" y="50mm" width="2mm" height="2mm" /><rect x="26mm" y="50mm" width="2mm" height="2mm" /><rect x="30mm" y="50mm" width="2mm" height="2mm" /><rect x="32mm" y="50mm" width="2mm" height="2mm" /><rect x="36mm" y="50mm" width="2mm" height="2mm" /><rect x="38mm" y="50mm" width="2mm" height="2mm" /><rect x="42mm" y="50mm" width="2mm" height="2mm" /><rect x="52mm" y="50mm" width="2mm" height="2mm" /><rect x="54mm" y="50mm" width="2mm" height="2mm" /><rect x="56mm" y="50mm" width="2mm" height="2mm" /><rect x="60mm" y="50mm" width="2mm" height="2mm" /><rect x="62mm" y="50mm" width="2mm" height="2mm" /><rect x="66mm" y="50mm" width="2mm" height="2mm" /><rect x="68mm" y="50mm" width="2mm" height="2mm" /><rect x="70mm" y="50mm" width="2mm" height="2mm" /><rect x="72mm" y="50mm" width="2mm" height="2mm" /><rect x="74mm" y="50mm" width="2mm" height="2mm" /><rect x="2mm" y="52mm" width="2mm" height="2mm" /><rect x="6mm" y="52mm" width="2mm" height="2mm" /><rect x="8mm" y="52mm" width="2mm" height="2mm" /><rect x="10mm" y="52mm" width="2mm" height="2mm" /><rect x="12mm" y="52mm" width="2mm" height="2mm" /><rect x="20mm" y="52mm" width="2mm" height="2mm" /><rect x="22mm" y="52mm" width="2mm" height="2mm" /><rect x="32mm" y="52mm" width="2mm" height="2mm" /><rect x="34mm" y="52mm" width="2mm" height="2mm" /><rect x="40mm" y="52mm" width="2mm" height="2mm" /><rect x="42mm" y="52mm" width="2mm" height="2mm" /><rect x="44mm" y="52mm" width="2mm" height="2mm" /><rect x="46mm" y="52mm" width="2mm" height="2mm" /><rect x="48mm" y="52mm" width="2mm" height="2mm" /><rect x="58mm" y="52mm" width="2mm" height="2mm" /><rect x="64mm" y="52mm" width="2mm" height="2mm" /><rect x="70mm" y="52mm" width="2mm" height="2mm" /><rect x="72mm" y="52mm" width="2mm" height="2mm" /><rect x="2mm" y="54mm" width="2mm" height="2mm" /><rect x="10mm" y="54mm" width="2mm" height="2mm" /><rect x="12mm" y="54mm" width="2mm" height="2mm" /><rect x="14mm" y="54mm" width="2mm" height="2mm" /><rect x="20mm" y="54mm" width="2mm" height="2mm" /><rect x="24mm" y="54mm" width="2mm" height="2mm" /><rect x="26mm" y="54mm" width="2mm" height="2mm" /><rect x="38mm" y="54mm" width="2mm" height="2mm" /><rect x="46mm" y="54mm" width="2mm" height="2mm" /><rect x="52mm" y="54mm" width="2mm" height="2mm" /><rect x="56mm" y="54mm" width="2mm" height="2mm" /><rect x="60mm" y="54mm" width="2mm" height="2mm" /><rect x="62mm" y="54mm" width="2mm" height="2mm" /><rect x="64mm" y="54mm" width="2mm" height="2mm" /><rect x="66mm" y="54mm" width="2mm" height="2mm" /><rect x="68mm" y="54mm" width="2mm" height="2mm" /><rect x="72mm" y="54mm" width="2mm" height="2mm" /><rect x="74mm" y="54mm" width="2mm" height="2mm" /><rect x="2mm" y="56mm" width="2mm" height="2mm" /><rect x="10mm" y="56mm" width="2mm" height="2mm" /><rect x="24mm" y="56mm" width="2mm" height="2mm" /><rect x="30mm" y="56mm" width="2mm" height="2mm" /><rect x="34mm" y="56mm" width="2mm" height="2mm" /><rect x="40mm" y="56mm" width="2mm" height="2mm" /><rect x="42mm" y="56mm" width="2mm" height="2mm" /><rect x="44mm" y="56mm" width="2mm" height="2mm" /><rect x="46mm" y="56mm" width="2mm" height="2mm" /><rect x="58mm" y="56mm" width="2mm" height="2mm" /><rect x="62mm" y="56mm" width="2mm" height="2mm" /><rect x="64mm" y="56mm" width="2mm" height="2mm" /><rect x="74mm" y="56mm" width="2mm" height="2mm" /><rect x="2mm" y="58mm" width="2mm" height="2mm" /><rect x="6mm" y="58mm" width="2mm" height="2mm" /><rect x="10mm" y="58mm" width="2mm" height="2mm" /><rect x="14mm" y="58mm" width="2mm" height="2mm" /><rect x="18mm" y="58mm" width="2mm" height="2mm" /><rect x="22mm" y="58mm" width="2mm" height="2mm" /><rect x="24mm" y="58mm" width="2mm" height="2mm" /><rect x="36mm" y="58mm" width="2mm" height="2mm" /><rect x="38mm" y="58mm" width="2mm" height="2mm" /><rect x="52mm" y="58mm" width="2mm" height="2mm" /><rect x="54mm" y="58mm" width="2mm" height="2mm" /><rect x="58mm" y="58mm" width="2mm" height="2mm" /><rect x="60mm" y="58mm" width="2mm" height="2mm" /><rect x="62mm" y="58mm" width="2mm" height="2mm" /><rect x="64mm" y="58mm" width="2mm" height="2mm" /><rect x="66mm" y="58mm" width="2mm" height="2mm" /><rect x="68mm" y="58mm" width="2mm" height="2mm" /><rect x="70mm" y="58mm" width="2mm" height="2mm" /><rect x="18mm" y="60mm" width="2mm" height="2mm" /><rect x="20mm" y="60mm" width="2mm" height="2mm" /><rect x="26mm" y="60mm" width="2mm" height="2mm" /><rect x="28mm" y="60mm" width="2mm" height="2mm" /><rect x="30mm" y="60mm" width="2mm" height="2mm" /><rect x="32mm" y="60mm" width="2mm" height="2mm" /><rect x="40mm" y="60mm" width="2mm" height="2mm" /><rect x="44mm" y="60mm" width="2mm" height="2mm" /><rect x="46mm" y="60mm" width="2mm" height="2mm" /><rect x="48mm" y="60mm" width="2mm" height="2mm" /><rect x="56mm" y="60mm" width="2mm" height="2mm" /><rect x="58mm" y="60mm" width="2mm" height="2mm" /><rect x="66mm" y="60mm" width="2mm" height="2mm" /><rect x="68mm" y="60mm" width="2mm" height="2mm" /><rect x="70mm" y="60mm" width="2mm" height="2mm" /><rect x="2mm" y="62mm" width="2mm" height="2mm" /><rect x="4mm" y="62mm" width="2mm" height="2mm" /><rect x="6mm" y="62mm" width="2mm" height="2mm" /><rect x="8mm" y="62mm" width="2mm" height="2mm" /><rect x="10mm" y="62mm" width="2mm" height="2mm" /><rect x="12mm" y="62mm" width="2mm" height="2mm" /><rect x="14mm" y="62mm" width="2mm" height="2mm" /><rect x="18mm" y="62mm" width="2mm" height="2mm" /><rect x="20mm" y="62mm" width="2mm" height="2mm" /><rect x="28mm" y="62mm" width="2mm" height="2mm" /><rect x="30mm" y="62mm" width="2mm" height="2mm" /><rect x="32mm" y="62mm" width="2mm" height="2mm" /><rect x="42mm" y="62mm" width="2mm" height="2mm" /><rect x="50mm" y="62mm" width="2mm" height="2mm" /><rect x="54mm" y="62mm" width="2mm" height="2mm" /><rect x="58mm" y="62mm" width="2mm" height="2mm" /><rect x="62mm" y="62mm" width="2mm" height="2mm" /><rect x="66mm" y="62mm" width="2mm" height="2mm" /><rect x="72mm" y="62mm" width="2mm" height="2mm" /><rect x="74mm" y="62mm" width="2mm" height="2mm" /><rect x="2mm" y="64mm" width="2mm" height="2mm" /><rect x="14mm" y="64mm" width="2mm" height="2mm" /><rect x="22mm" y="64mm" width="2mm" height="2mm" /><rect x="26mm" y="64mm" width="2mm" height="2mm" /><rect x="28mm" y="64mm" width="2mm" height="2mm" /><rect x="34mm" y="64mm" width="2mm" height="2mm" /><rect x="38mm" y="64mm" width="2mm" height="2mm" /><rect x="44mm" y="64mm" width="2mm" height="2mm" /><rect x="48mm" y="64mm" width="2mm" height="2mm" /><rect x="56mm" y="64mm" width="2mm" height="2mm" /><rect x="58mm" y="64mm" width="2mm" height="2mm" /><rect x="66mm" y="64mm" width="2mm" height="2mm" /><rect x="72mm" y="64mm" width="2mm" height="2mm" /><rect x="2mm" y="66mm" width="2mm" height="2mm" /><rect x="6mm" y="66mm" width="2mm" height="2mm" /><rect x="8mm" y="66mm" width="2mm" height="2mm" /><rect x="10mm" y="66mm" width="2mm" height="2mm" /><rect x="14mm" y="66mm" width="2mm" height="2mm" /><rect x="18mm" y="66mm" width="2mm" height="2mm" /><rect x="20mm" y="66mm" width="2mm" height="2mm" /><rect x="26mm" y="66mm" width="2mm" height="2mm" /><rect x="30mm" y="66mm" width="2mm" height="2mm" /><rect x="32mm" y="66mm" width="2mm" height="2mm" /><rect x="34mm" y="66mm" width="2mm" height="2mm" /><rect x="36mm" y="66mm" width="2mm" height="2mm" /><rect x="38mm" y="66mm" width="2mm" height="2mm" /><rect x="42mm" y="66mm" width="2mm" height="2mm" /><rect x="50mm" y="66mm" width="2mm" height="2mm" /><rect x="52mm" y="66mm" width="2mm" height="2mm" /><rect x="56mm" y="66mm" width="2mm" height="2mm" /><rect x="58mm" y="66mm" width="2mm" height="2mm" /><rect x="60mm" y="66mm" width="2mm" height="2mm" /><rect x="62mm" y="66mm" width="2mm" height="2mm" /><rect x="64mm" y="66mm" width="2mm" height="2mm" /><rect x="66mm" y="66mm" width="2mm" height="2mm" /><rect x="70mm" y="66mm" width="2mm" height="2mm" /><rect x="72mm" y="66mm" width="2mm" height="2mm" /><rect x="2mm" y="68mm" width="2mm" height="2mm" /><rect x="6mm" y="68mm" width="2mm" height="2mm" /><rect x="8mm" y="68mm" width="2mm" height="2mm" /><rect x="10mm" y="68mm" width="2mm" height="2mm" /><rect x="14mm" y="68mm" width="2mm" height="2mm" /><rect x="18mm" y="68mm" width="2mm" height="2mm" /><rect x="20mm" y="68mm" width="2mm" height="2mm" /><rect x="22mm" y="68mm" width="2mm" height="2mm" /><rect x="36mm" y="68mm" width="2mm" height="2mm" /><rect x="40mm" y="68mm" width="2mm" height="2mm" /><rect x="44mm" y="68mm" width="2mm" height="2mm" /><rect x="46mm" y="68mm" width="2mm" height="2mm" /><rect x="48mm" y="68mm" width="2mm" height="2mm" /><rect x="50mm" y="68mm" width="2mm" height="2mm" /><rect x="52mm" y="68mm" width="2mm" height="2mm" /><rect x="58mm" y="68mm" width="2mm" height="2mm" /><rect x="60mm" y="68mm" width="2mm" height="2mm" /><rect x="62mm" y="68mm" width="2mm" height="2mm" /><rect x="64mm" y="68mm" width="2mm" height="2mm" /><rect x="66mm" y="68mm" width="2mm" height="2mm" /><rect x="68mm" y="68mm" width="2mm" height="2mm" /><rect x="74mm" y="68mm" width="2mm" height="2mm" /><rect x="2mm" y="70mm" width="2mm" height="2mm" /><rect x="6mm" y="70mm" width="2mm" height="2mm" /><rect x="8mm" y="70mm" width="2mm" height="2mm" /><rect x="10mm" y="70mm" width="2mm" height="2mm" /><rect x="14mm" y="70mm" width="2mm" height="2mm" /><rect x="18mm" y="70mm" width="2mm" height="2mm" /><rect x="22mm" y="70mm" width="2mm" height="2mm" /><rect x="24mm" y="70mm" width="2mm" height="2mm" /><rect x="26mm" y="70mm" width="2mm" height="2mm" /><rect x="32mm" y="70mm" width="2mm" height="2mm" /><rect x="38mm" y="70mm" width="2mm" height="2mm" /><rect x="44mm" y="70mm" width="2mm" height="2mm" /><rect x="46mm" y="70mm" width="2mm" height="2mm" /><rect x="52mm" y="70mm" width="2mm" height="2mm" /><rect x="54mm" y="70mm" width="2mm" height="2mm" /><rect x="58mm" y="70mm" width="2mm" height="2mm" /><rect x="64mm" y="70mm" width="2mm" height="2mm" /><rect x="68mm" y="70mm" width="2mm" height="2mm" /><rect x="72mm" y="70mm" width="2mm" height="2mm" /><rect x="74mm" y="70mm" width="2mm" height="2mm" /><rect x="2mm" y="72mm" width="2mm" height="2mm" /><rect x="14mm" y="72mm" width="2mm" height="2mm" /><rect x="18mm" y="72mm" width="2mm" height="2mm" /><rect x="22mm" y="72mm" width="2mm" height="2mm" /><rect x="24mm" y="72mm" width="2mm" height="2mm" /><rect x="30mm" y="72mm" width="2mm" height="2mm" /><rect x="38mm" y="72mm" width="2mm" height="2mm" /><rect x="40mm" y="72mm" width="2mm" height="2mm" /><rect x="44mm" y="72mm" width="2mm" height="2mm" /><rect x="48mm" y="72mm" width="2mm" height="2mm" /><rect x="54mm" y="72mm" width="2mm" height="2mm" /><rect x="56mm" y="72mm" width="2mm" height="2mm" /><rect x="58mm" y="72mm" width="2mm" height="2mm" /><rect x="66mm" y="72mm" width="2mm" height="2mm" /><rect x="68mm" y="72mm" width="2mm" height="2mm" /><rect x="74mm" y="72mm" width="2mm" height="2mm" /><rect x="2mm" y="74mm" width="2mm" height="2mm" /><rect x="4mm" y="74mm" width="2mm" height="2mm" /><rect x="6mm" y="74mm" width="2mm" height="2mm" /><rect x="8mm" y="74mm" width="2mm" height="2mm" /><rect x="10mm" y="74mm" width="2mm" height="2mm" /><rect x="12mm" y="74mm" width="2mm" height="2mm" /><rect x="14mm" y="74mm" width="2mm" height="2mm" /><rect x="18mm" y="74mm" width="2mm" height="2mm" /><rect x="20mm" y="74mm" width="2mm" height="2mm" /><rect x="24mm" y="74mm" width="2mm" height="2mm" /><rect x="32mm" y="74mm" width="2mm" height="2mm" /><rect x="34mm" y="74mm" width="2mm" height="2mm" /><rect x="36mm" y="74mm" width="2mm" height="2mm" /><rect x="38mm" y="74mm" width="2mm" height="2mm" /><rect x="42mm" y="74mm" width="2mm" height="2mm" /><rect x="48mm" y="74mm" width="2mm" height="2mm" /><rect x="52mm" y="74mm" width="2mm" height="2mm" /><rect x="60mm" y="74mm" width="2mm" height="2mm" /><rect x="62mm" y="74mm" width="2mm" height="2mm" /><rect x="64mm" y="74mm" width="2mm" height="2mm" /><rect x="66mm" y="74mm" width="2mm" height="2mm" /><rect x="68mm" y="74mm" width="2mm" height="2mm" /><rect x="70mm" y="74mm" width="2mm" height="2mm" /><rect x="72mm" y="74mm" width="2mm" height="2mm" /><rect x="74mm" y="74mm" width="2mm" height="2mm" /></svg>